<svg width="896" height="665" viewBox="0 0 896 665" xmlns="http://www.w3.org/2000/svg" xmlns:xlink="http://www.w3.org/1999/xlink"><title>F51D7A4A-F7A1-47ED-ABB7-5F042D864CCC</title><defs><path id="a" d="M141.929 96.929h46v46h-46z"/><mask id="s" x="0" y="0" width="46" height="46" fill="#fff"><use xlink:href="#a"/></mask><path id="b" d="M637.929 20.929h30v30h-30z"/><mask id="t" x="0" y="0" width="30" height="30" fill="#fff"><use xlink:href="#b"/></mask><path id="c" d="M840.929 229.929h46v46h-46z"/><mask id="u" x="0" y="0" width="46" height="46" fill="#fff"><use xlink:href="#c"/></mask><path id="d" d="M161.707 372.468h29.402v29.402h-29.402z"/><mask id="v" x="0" y="0" width="29.402" height="29.402" fill="#fff"><use xlink:href="#d"/></mask><path id="e" d="M56.054 29L81 75H35z"/><mask id="w" x="0" y="0" width="46" height="46" fill="#fff"><use xlink:href="#e"/></mask><path id="f" d="M469.054 0L494 46h-46z"/><mask id="x" x="0" y="0" width="46" height="46" fill="#fff"><use xlink:href="#f"/></mask><path id="g" d="M106.929 96.929h46v46h-46z"/><mask id="y" x="0" y="0" width="46" height="46" fill="#fff"><use xlink:href="#g"/></mask><path id="h" d="M602.929 20.929h30v30h-30z"/><mask id="z" x="0" y="0" width="30" height="30" fill="#fff"><use xlink:href="#h"/></mask><path id="i" d="M21.054 29L46 75H0z"/><mask id="A" x="0" y="0" width="46" height="46" fill="#fff"><use xlink:href="#i"/></mask><path id="j" d="M714.054 233L739 279h-46z"/><mask id="B" x="0" y="0" width="46" height="46" fill="#fff"><use xlink:href="#j"/></mask><path id="k" d="M434.054 0L459 46h-46z"/><mask id="C" x="0" y="0" width="46" height="46" fill="#fff"><use xlink:href="#k"/></mask><path id="l" d="M8.929 593.929h46v46h-46z"/><mask id="D" x="0" y="0" width="46" height="46" fill="#fff"><use xlink:href="#l"/></mask><path id="m" d="M703.823 517.823h30v30h-30z"/><mask id="E" x="0" y="0" width="30" height="30" fill="#fff"><use xlink:href="#m"/></mask><path id="n" d="M62.054 434L87 480H41z"/><mask id="F" x="0" y="0" width="46" height="46" fill="#fff"><use xlink:href="#n"/></mask><path id="o" d="M830.054 415L855 461h-46z"/><mask id="G" x="0" y="0" width="46" height="46" fill="#fff"><use xlink:href="#o"/></mask><path id="p" d="M202.189 245L219 276h-31z"/><mask id="H" x="0" y="0" width="31" height="31" fill="#fff"><use xlink:href="#p"/></mask><path id="q" d="M485.189 633L502 664h-31z"/><mask id="I" x="0" y="0" width="31" height="31" fill="#fff"><use xlink:href="#q"/></mask><path id="r" d="M474.054 528L499 574h-46z"/><mask id="J" x="0" y="0" width="46" height="46" fill="#fff"><use xlink:href="#r"/></mask></defs><g transform="translate(0 1)" fill="none" fill-rule="evenodd"><use stroke="#E19827" mask="url(#s)" stroke-width="4" transform="rotate(34 164.93 119.93)" xlink:href="#a"/><path fill="#DB9D24" d="M300.949 57l8.82 5.95-5.95 8.82-8.82-5.95zM663.949 270l8.82 5.95-5.95 8.82-8.82-5.95z"/><use stroke="#E19827" mask="url(#t)" stroke-width="4" transform="rotate(34 652.93 35.93)" xlink:href="#b"/><use stroke="#E19827" mask="url(#u)" stroke-width="4" transform="rotate(34 863.93 252.93)" xlink:href="#c"/><use stroke="#E19827" mask="url(#v)" stroke-width="4" transform="rotate(34 176.408 387.169)" xlink:href="#d"/><use stroke="#E19827" mask="url(#w)" stroke-width="4" xlink:href="#e"/><use stroke="#E19827" mask="url(#x)" stroke-width="4" transform="rotate(90 471 23)" xlink:href="#f"/><circle stroke="#E19827" cx="58.5" cy="306.5" r="46.5"/><circle stroke="#E19827" cx="716.5" cy="399.5" r="46.5"/><circle stroke="#E19827" cx="220" cy="23" r="23"/><g transform="translate(35)"><use stroke="#E19827" mask="url(#y)" stroke-width="4" transform="rotate(34 129.93 119.93)" xlink:href="#g"/><path fill="#DB9D24" d="M265.949 57l8.82 5.95-5.95 8.82-8.82-5.95z"/><use stroke="#E19827" mask="url(#z)" stroke-width="4" transform="rotate(34 617.93 35.93)" xlink:href="#h"/><use stroke="#E19827" mask="url(#A)" stroke-width="4" xlink:href="#i"/><use stroke="#E19827" mask="url(#B)" stroke-width="4" xlink:href="#j"/><use stroke="#E19827" mask="url(#C)" stroke-width="4" transform="rotate(90 436 23)" xlink:href="#k"/><circle stroke="#E19827" cx="185" cy="23" r="23"/><circle stroke="#E19827" cx="482" cy="80" r="23"/></g><use stroke="#E19827" mask="url(#D)" stroke-width="4" transform="scale(1 -1) rotate(34 2049.814 0)" xlink:href="#l"/><path fill="#DB9D24" d="M305.949 599.769l8.82-5.95-5.95-8.82-8.82 5.95z"/><use stroke="#E19827" mask="url(#E)" stroke-width="4" transform="scale(1 -1) rotate(34 2461.61 0)" xlink:href="#m"/><use stroke="#E19827" mask="url(#F)" stroke-width="4" transform="matrix(1 0 0 -1 0 914)" xlink:href="#n"/><use stroke="#E19827" mask="url(#G)" stroke-width="4" transform="matrix(0 1 1 0 394 -394)" xlink:href="#o"/><use stroke="#E19827" mask="url(#H)" stroke-width="4" transform="matrix(0 1 1 0 -57 57)" xlink:href="#p"/><use stroke="#E19827" mask="url(#I)" stroke-width="4" transform="matrix(0 1 1 0 -162 162)" xlink:href="#q"/><use stroke="#E19827" mask="url(#J)" stroke-width="4" transform="matrix(0 -1 -1 0 1027 1027)" xlink:href="#r"/><ellipse stroke="#E19827" transform="matrix(1 0 0 -1 0 1148)" cx="156" cy="574" rx="23" ry="23"/><circle stroke="#E19827" cx="763" cy="152" r="23"/><circle fill="#E19827" cx="626.071" cy="146.071" r="6.071"/><circle fill="#E19827" cx="704.071" cy="623.071" r="6.071"/><circle fill="#E19827" cx="87.071" cy="557.071" r="6.071"/><circle fill="#E19827" cx="58.071" cy="213.071" r="6.071"/></g></svg>